<svg width="671" height="370" viewBox="0 0 671 370" fill="none" xmlns="http://www.w3.org/2000/svg">
<path d="M335.459 369.36C290.682 369.36 248.662 359.761 217.026 342.349L216.864 342.304H216.62C124.307 342.26 49.11 300.917 49.11 250.021V249.932L49.0288 249.887C17.6332 232.577 0 209.117 0 184.659C0 160.2 17.6332 136.741 49.0288 119.431L49.11 119.342V119.252C49.11 68.4002 124.226 27.0579 216.701 27.0579H216.864L216.945 27.0132C248.581 9.60124 290.763 0.00231934 335.459 0.00231934C380.156 0.00231934 422.257 9.60124 453.893 27.0132L454.055 27.0579H454.217C546.693 27.0579 621.89 68.4449 621.89 119.297V119.386L621.971 119.475C653.367 136.786 671 160.245 671 184.704C671 209.162 653.367 232.621 621.971 249.932L621.89 249.976V250.065C621.89 300.962 546.693 342.349 454.299 342.349H454.055L453.974 342.394C422.338 359.806 380.156 369.405 335.459 369.405V369.36Z" fill="url(#paint0_linear_337_1320)"/>
<defs>
<linearGradient id="paint0_linear_337_1320" x1="335.5" y1="0.00231934" x2="335.5" y2="369.405" gradientUnits="userSpaceOnUse">
<stop stop-color="#C40A68"/>
<stop offset="1" stop-color="white"/>
</linearGradient>
</defs>
</svg>
