<svg width="529" height="339" viewBox="0 0 529 339" fill="none" xmlns="http://www.w3.org/2000/svg">
<path d="M264.468 338.959C229.166 338.959 196.039 330.15 171.098 314.171L170.97 314.13H170.778C98.0007 314.089 38.7171 276.149 38.7171 229.442V229.36L38.6531 229.319C13.9016 213.433 0 191.905 0 169.459C0 147.013 13.9016 125.485 38.6531 109.599L38.7171 109.517V109.435C38.7171 62.7687 97.9367 24.8289 170.842 24.8289H170.97L171.034 24.7879C195.975 8.80892 229.23 0 264.468 0C299.706 0 332.897 8.80892 357.838 24.7879L357.966 24.8289H358.094C430.999 24.8289 490.283 62.8097 490.283 109.476V109.558L490.347 109.64C515.098 125.526 529 147.054 529 169.5C529 191.946 515.098 213.474 490.347 229.36L490.283 229.401V229.483C490.283 276.19 430.999 314.171 358.158 314.171H357.966L357.902 314.212C332.961 330.191 299.706 339 264.468 339V338.959Z" fill="url(#paint0_linear_521_632)"/>
<defs>
<linearGradient id="paint0_linear_521_632" x1="264.5" y1="0" x2="264.5" y2="339" gradientUnits="userSpaceOnUse">
<stop stop-color="#C40A68"/>
<stop offset="1" stop-color="white"/>
</linearGradient>
</defs>
</svg>
